<mxfile host="app.diagrams.net" agent="Mozilla/5.0 (X11; Linux x86_64) AppleWebKit/537.36 (KHTML, like Gecko) Chrome/135.0.0.0 Safari/537.36" version="26.2.12">
  <diagram name="Page-1" id="k6onzWjORCCPgHIeGHYK">
    <mxGraphModel dx="1602" dy="940" grid="1" gridSize="10" guides="1" tooltips="1" connect="1" arrows="1" fold="1" page="1" pageScale="1" pageWidth="827" pageHeight="1169" math="0" shadow="0">
      <root>
        <mxCell id="0" />
        <mxCell id="1" parent="0" />
        <mxCell id="IQlJb9kU39XFHBNEdt3I-1" value="" style="endArrow=none;html=1;rounded=0;" edge="1" parent="1">
          <mxGeometry width="50" height="50" relative="1" as="geometry">
            <mxPoint y="240" as="sourcePoint" />
            <mxPoint x="820" y="240" as="targetPoint" />
          </mxGeometry>
        </mxCell>
        <mxCell id="IQlJb9kU39XFHBNEdt3I-3" value="BF/HF front-end" style="text;html=1;align=center;verticalAlign=middle;whiteSpace=wrap;rounded=0;" vertex="1" parent="1">
          <mxGeometry x="10" y="210" width="140" height="30" as="geometry" />
        </mxCell>
        <mxCell id="IQlJb9kU39XFHBNEdt3I-4" value="" style="triangle;whiteSpace=wrap;html=1;" vertex="1" parent="1">
          <mxGeometry x="120" y="70" width="80" height="80" as="geometry" />
        </mxCell>
        <mxCell id="IQlJb9kU39XFHBNEdt3I-5" value="TLV341" style="text;html=1;align=center;verticalAlign=middle;whiteSpace=wrap;rounded=0;" vertex="1" parent="1">
          <mxGeometry x="120" y="95" width="60" height="30" as="geometry" />
        </mxCell>
        <mxCell id="IQlJb9kU39XFHBNEdt3I-8" value="" style="group" vertex="1" connectable="0" parent="1">
          <mxGeometry x="220" y="100" width="10" height="20" as="geometry" />
        </mxCell>
        <mxCell id="IQlJb9kU39XFHBNEdt3I-6" value="" style="endArrow=none;html=1;rounded=0;" edge="1" parent="IQlJb9kU39XFHBNEdt3I-8">
          <mxGeometry width="50" height="50" relative="1" as="geometry">
            <mxPoint y="20" as="sourcePoint" />
            <mxPoint as="targetPoint" />
          </mxGeometry>
        </mxCell>
        <mxCell id="IQlJb9kU39XFHBNEdt3I-7" value="" style="endArrow=none;html=1;rounded=0;" edge="1" parent="IQlJb9kU39XFHBNEdt3I-8">
          <mxGeometry width="50" height="50" relative="1" as="geometry">
            <mxPoint x="10" y="20" as="sourcePoint" />
            <mxPoint x="10" as="targetPoint" />
          </mxGeometry>
        </mxCell>
        <mxCell id="IQlJb9kU39XFHBNEdt3I-9" value="" style="rounded=0;whiteSpace=wrap;html=1;" vertex="1" parent="1">
          <mxGeometry x="290" y="80" width="190" height="60" as="geometry" />
        </mxCell>
        <mxCell id="IQlJb9kU39XFHBNEdt3I-10" value="74LVC1G17" style="text;html=1;align=center;verticalAlign=middle;whiteSpace=wrap;rounded=0;" vertex="1" parent="1">
          <mxGeometry x="335" y="95" width="100" height="30" as="geometry" />
        </mxCell>
        <mxCell id="IQlJb9kU39XFHBNEdt3I-11" value="&lt;i&gt;Trigger schmitt intégrée&amp;nbsp;&lt;/i&gt;&lt;div&gt;&lt;i&gt;entrées tolérantes 5V, peut fonctionner à 3.3 V.&amp;nbsp;&lt;/i&gt;&lt;/div&gt;&lt;div&gt;&lt;i&gt;Large bande passante (jusqu&#39;à 100+ MHz).&lt;/i&gt;&lt;/div&gt;" style="text;html=1;align=left;verticalAlign=middle;whiteSpace=wrap;rounded=0;" vertex="1" parent="1">
          <mxGeometry x="290" y="150" width="350" height="50" as="geometry" />
        </mxCell>
        <mxCell id="IQlJb9kU39XFHBNEdt3I-12" value="" style="endArrow=classic;html=1;rounded=0;exitX=1;exitY=0.5;exitDx=0;exitDy=0;" edge="1" parent="1" source="IQlJb9kU39XFHBNEdt3I-9" target="IQlJb9kU39XFHBNEdt3I-13">
          <mxGeometry width="50" height="50" relative="1" as="geometry">
            <mxPoint x="290" y="160" as="sourcePoint" />
            <mxPoint x="560" y="110" as="targetPoint" />
          </mxGeometry>
        </mxCell>
        <mxCell id="IQlJb9kU39XFHBNEdt3I-13" value="counter front-end" style="text;html=1;align=center;verticalAlign=middle;whiteSpace=wrap;rounded=0;" vertex="1" parent="1">
          <mxGeometry x="530" y="95" width="140" height="30" as="geometry" />
        </mxCell>
        <mxCell id="IQlJb9kU39XFHBNEdt3I-14" value="" style="endArrow=classic;html=1;rounded=0;exitX=0.5;exitY=0;exitDx=0;exitDy=0;" edge="1" parent="1" source="IQlJb9kU39XFHBNEdt3I-4">
          <mxGeometry width="50" height="50" relative="1" as="geometry">
            <mxPoint x="330" y="160" as="sourcePoint" />
            <mxPoint x="160" y="50" as="targetPoint" />
          </mxGeometry>
        </mxCell>
        <mxCell id="IQlJb9kU39XFHBNEdt3I-15" value="" style="endArrow=classic;html=1;rounded=0;exitX=0.5;exitY=0;exitDx=0;exitDy=0;" edge="1" parent="1" target="IQlJb9kU39XFHBNEdt3I-16">
          <mxGeometry width="50" height="50" relative="1" as="geometry">
            <mxPoint x="384.76" y="80" as="sourcePoint" />
            <mxPoint x="384.76" y="40" as="targetPoint" />
          </mxGeometry>
        </mxCell>
        <mxCell id="IQlJb9kU39XFHBNEdt3I-16" value="+5V" style="text;html=1;align=center;verticalAlign=middle;whiteSpace=wrap;rounded=0;" vertex="1" parent="1">
          <mxGeometry x="354.76" y="25" width="60" height="30" as="geometry" />
        </mxCell>
        <mxCell id="IQlJb9kU39XFHBNEdt3I-17" value="+5V" style="text;html=1;align=center;verticalAlign=middle;whiteSpace=wrap;rounded=0;" vertex="1" parent="1">
          <mxGeometry x="130" y="25" width="60" height="30" as="geometry" />
        </mxCell>
        <mxCell id="IQlJb9kU39XFHBNEdt3I-18" value="" style="endArrow=none;html=1;rounded=0;" edge="1" parent="1">
          <mxGeometry width="50" height="50" relative="1" as="geometry">
            <mxPoint x="40" y="110" as="sourcePoint" />
            <mxPoint x="120" y="110" as="targetPoint" />
          </mxGeometry>
        </mxCell>
        <mxCell id="IQlJb9kU39XFHBNEdt3I-19" value="" style="endArrow=none;html=1;rounded=0;exitX=1;exitY=0.5;exitDx=0;exitDy=0;" edge="1" parent="1" source="IQlJb9kU39XFHBNEdt3I-4">
          <mxGeometry width="50" height="50" relative="1" as="geometry">
            <mxPoint x="50" y="120" as="sourcePoint" />
            <mxPoint x="220" y="110" as="targetPoint" />
          </mxGeometry>
        </mxCell>
        <mxCell id="IQlJb9kU39XFHBNEdt3I-20" value="" style="endArrow=none;html=1;rounded=0;" edge="1" parent="1">
          <mxGeometry width="50" height="50" relative="1" as="geometry">
            <mxPoint x="230" y="110" as="sourcePoint" />
            <mxPoint x="290" y="110" as="targetPoint" />
          </mxGeometry>
        </mxCell>
        <mxCell id="IQlJb9kU39XFHBNEdt3I-21" value="" style="endArrow=none;html=1;rounded=0;" edge="1" parent="1">
          <mxGeometry width="50" height="50" relative="1" as="geometry">
            <mxPoint y="441" as="sourcePoint" />
            <mxPoint x="820" y="441" as="targetPoint" />
          </mxGeometry>
        </mxCell>
        <mxCell id="IQlJb9kU39XFHBNEdt3I-22" value="VHF front-end" style="text;html=1;align=center;verticalAlign=middle;whiteSpace=wrap;rounded=0;" vertex="1" parent="1">
          <mxGeometry x="10" y="400" width="180" height="30" as="geometry" />
        </mxCell>
        <mxCell id="IQlJb9kU39XFHBNEdt3I-23" value="Hi-Z&lt;div&gt;0/10MHz&lt;/div&gt;" style="text;html=1;align=left;verticalAlign=middle;whiteSpace=wrap;rounded=0;" vertex="1" parent="1">
          <mxGeometry x="10" y="120" width="60" height="30" as="geometry" />
        </mxCell>
        <mxCell id="IQlJb9kU39XFHBNEdt3I-25" value="" style="triangle;whiteSpace=wrap;html=1;" vertex="1" parent="1">
          <mxGeometry x="130" y="310" width="80" height="80" as="geometry" />
        </mxCell>
        <mxCell id="IQlJb9kU39XFHBNEdt3I-26" value="BFP196" style="text;html=1;align=center;verticalAlign=middle;whiteSpace=wrap;rounded=0;" vertex="1" parent="1">
          <mxGeometry x="130" y="331" width="60" height="30" as="geometry" />
        </mxCell>
        <mxCell id="IQlJb9kU39XFHBNEdt3I-27" value="" style="group" vertex="1" connectable="0" parent="1">
          <mxGeometry x="230" y="341" width="10" height="20" as="geometry" />
        </mxCell>
        <mxCell id="IQlJb9kU39XFHBNEdt3I-28" value="" style="endArrow=none;html=1;rounded=0;" edge="1" parent="IQlJb9kU39XFHBNEdt3I-27">
          <mxGeometry width="50" height="50" relative="1" as="geometry">
            <mxPoint y="20" as="sourcePoint" />
            <mxPoint as="targetPoint" />
          </mxGeometry>
        </mxCell>
        <mxCell id="IQlJb9kU39XFHBNEdt3I-29" value="" style="endArrow=none;html=1;rounded=0;" edge="1" parent="IQlJb9kU39XFHBNEdt3I-27">
          <mxGeometry width="50" height="50" relative="1" as="geometry">
            <mxPoint x="10" y="20" as="sourcePoint" />
            <mxPoint x="10" as="targetPoint" />
          </mxGeometry>
        </mxCell>
        <mxCell id="IQlJb9kU39XFHBNEdt3I-30" value="" style="endArrow=classic;html=1;rounded=0;exitX=0.5;exitY=0;exitDx=0;exitDy=0;" edge="1" parent="1" source="IQlJb9kU39XFHBNEdt3I-25">
          <mxGeometry width="50" height="50" relative="1" as="geometry">
            <mxPoint x="340" y="396" as="sourcePoint" />
            <mxPoint x="170" y="286" as="targetPoint" />
          </mxGeometry>
        </mxCell>
        <mxCell id="IQlJb9kU39XFHBNEdt3I-31" value="+5V" style="text;html=1;align=center;verticalAlign=middle;whiteSpace=wrap;rounded=0;" vertex="1" parent="1">
          <mxGeometry x="140" y="261" width="60" height="30" as="geometry" />
        </mxCell>
        <mxCell id="IQlJb9kU39XFHBNEdt3I-32" value="" style="endArrow=none;html=1;rounded=0;" edge="1" parent="1">
          <mxGeometry width="50" height="50" relative="1" as="geometry">
            <mxPoint x="50" y="346" as="sourcePoint" />
            <mxPoint x="130" y="346" as="targetPoint" />
          </mxGeometry>
        </mxCell>
        <mxCell id="IQlJb9kU39XFHBNEdt3I-35" value="50 ohms&lt;div&gt;250MHz&lt;/div&gt;" style="text;html=1;align=left;verticalAlign=middle;whiteSpace=wrap;rounded=0;" vertex="1" parent="1">
          <mxGeometry x="20" y="306" width="60" height="30" as="geometry" />
        </mxCell>
        <mxCell id="IQlJb9kU39XFHBNEdt3I-36" value="" style="endArrow=none;html=1;rounded=0;" edge="1" parent="1">
          <mxGeometry width="50" height="50" relative="1" as="geometry">
            <mxPoint y="600" as="sourcePoint" />
            <mxPoint x="820" y="600" as="targetPoint" />
          </mxGeometry>
        </mxCell>
        <mxCell id="IQlJb9kU39XFHBNEdt3I-37" value="SHF front-end" style="text;html=1;align=center;verticalAlign=middle;whiteSpace=wrap;rounded=0;" vertex="1" parent="1">
          <mxGeometry x="10" y="570" width="180" height="30" as="geometry" />
        </mxCell>
        <mxCell id="IQlJb9kU39XFHBNEdt3I-38" value="" style="triangle;whiteSpace=wrap;html=1;" vertex="1" parent="1">
          <mxGeometry x="130" y="479" width="80" height="80" as="geometry" />
        </mxCell>
        <mxCell id="IQlJb9kU39XFHBNEdt3I-39" value="ERA-2" style="text;html=1;align=center;verticalAlign=middle;whiteSpace=wrap;rounded=0;" vertex="1" parent="1">
          <mxGeometry x="130" y="504" width="60" height="30" as="geometry" />
        </mxCell>
        <mxCell id="IQlJb9kU39XFHBNEdt3I-40" value="" style="group" vertex="1" connectable="0" parent="1">
          <mxGeometry x="230" y="509" width="10" height="20" as="geometry" />
        </mxCell>
        <mxCell id="IQlJb9kU39XFHBNEdt3I-41" value="" style="endArrow=none;html=1;rounded=0;" edge="1" parent="IQlJb9kU39XFHBNEdt3I-40">
          <mxGeometry width="50" height="50" relative="1" as="geometry">
            <mxPoint y="20" as="sourcePoint" />
            <mxPoint as="targetPoint" />
          </mxGeometry>
        </mxCell>
        <mxCell id="IQlJb9kU39XFHBNEdt3I-42" value="" style="endArrow=none;html=1;rounded=0;" edge="1" parent="IQlJb9kU39XFHBNEdt3I-40">
          <mxGeometry width="50" height="50" relative="1" as="geometry">
            <mxPoint x="10" y="20" as="sourcePoint" />
            <mxPoint x="10" as="targetPoint" />
          </mxGeometry>
        </mxCell>
        <mxCell id="IQlJb9kU39XFHBNEdt3I-43" value="" style="endArrow=classic;html=1;rounded=0;exitX=0.5;exitY=0;exitDx=0;exitDy=0;" edge="1" parent="1" source="IQlJb9kU39XFHBNEdt3I-38">
          <mxGeometry width="50" height="50" relative="1" as="geometry">
            <mxPoint x="340" y="569" as="sourcePoint" />
            <mxPoint x="170" y="459" as="targetPoint" />
          </mxGeometry>
        </mxCell>
        <mxCell id="IQlJb9kU39XFHBNEdt3I-44" value="" style="endArrow=none;html=1;rounded=0;" edge="1" parent="1">
          <mxGeometry width="50" height="50" relative="1" as="geometry">
            <mxPoint x="50" y="519" as="sourcePoint" />
            <mxPoint x="130" y="519" as="targetPoint" />
          </mxGeometry>
        </mxCell>
        <mxCell id="IQlJb9kU39XFHBNEdt3I-45" value="" style="endArrow=none;html=1;rounded=0;exitX=1;exitY=0.5;exitDx=0;exitDy=0;" edge="1" parent="1" source="IQlJb9kU39XFHBNEdt3I-38">
          <mxGeometry width="50" height="50" relative="1" as="geometry">
            <mxPoint x="60" y="529" as="sourcePoint" />
            <mxPoint x="230" y="519" as="targetPoint" />
          </mxGeometry>
        </mxCell>
        <mxCell id="IQlJb9kU39XFHBNEdt3I-46" value="" style="endArrow=none;html=1;rounded=0;" edge="1" parent="1">
          <mxGeometry width="50" height="50" relative="1" as="geometry">
            <mxPoint x="240" y="518.5799999999999" as="sourcePoint" />
            <mxPoint x="320" y="518.5799999999999" as="targetPoint" />
          </mxGeometry>
        </mxCell>
        <mxCell id="IQlJb9kU39XFHBNEdt3I-47" value="50 ohms&lt;div&gt;?MHz&lt;/div&gt;" style="text;html=1;align=left;verticalAlign=middle;whiteSpace=wrap;rounded=0;" vertex="1" parent="1">
          <mxGeometry x="20" y="479" width="60" height="30" as="geometry" />
        </mxCell>
        <mxCell id="IQlJb9kU39XFHBNEdt3I-48" value="+5V" style="text;html=1;align=center;verticalAlign=middle;whiteSpace=wrap;rounded=0;" vertex="1" parent="1">
          <mxGeometry x="170" y="449" width="60" height="30" as="geometry" />
        </mxCell>
        <mxCell id="IQlJb9kU39XFHBNEdt3I-51" value="" style="rounded=0;whiteSpace=wrap;html=1;" vertex="1" parent="1">
          <mxGeometry x="319" y="489" width="190" height="60" as="geometry" />
        </mxCell>
        <mxCell id="IQlJb9kU39XFHBNEdt3I-52" value="HMC363S8GE" style="text;html=1;align=center;verticalAlign=middle;whiteSpace=wrap;rounded=0;" vertex="1" parent="1">
          <mxGeometry x="354.76" y="504" width="60" height="30" as="geometry" />
        </mxCell>
        <mxCell id="IQlJb9kU39XFHBNEdt3I-53" value="&lt;i&gt;prescaler diviseur par 8&lt;/i&gt;" style="text;whiteSpace=wrap;html=1;" vertex="1" parent="1">
          <mxGeometry x="320" y="550" width="160" height="20" as="geometry" />
        </mxCell>
        <mxCell id="IQlJb9kU39XFHBNEdt3I-56" value="" style="endArrow=classic;html=1;rounded=0;" edge="1" parent="1">
          <mxGeometry width="50" height="50" relative="1" as="geometry">
            <mxPoint x="240" y="350" as="sourcePoint" />
            <mxPoint x="560" y="350" as="targetPoint" />
          </mxGeometry>
        </mxCell>
        <mxCell id="IQlJb9kU39XFHBNEdt3I-57" value="" style="endArrow=none;html=1;rounded=0;exitX=1;exitY=0.5;exitDx=0;exitDy=0;" edge="1" parent="1" source="IQlJb9kU39XFHBNEdt3I-25">
          <mxGeometry width="50" height="50" relative="1" as="geometry">
            <mxPoint x="220" y="390" as="sourcePoint" />
            <mxPoint x="230" y="350" as="targetPoint" />
          </mxGeometry>
        </mxCell>
        <mxCell id="IQlJb9kU39XFHBNEdt3I-58" value="counter front-end" style="text;html=1;align=center;verticalAlign=middle;whiteSpace=wrap;rounded=0;" vertex="1" parent="1">
          <mxGeometry x="560" y="336" width="140" height="30" as="geometry" />
        </mxCell>
        <mxCell id="IQlJb9kU39XFHBNEdt3I-59" value="" style="endArrow=classic;html=1;rounded=0;exitX=1;exitY=0.5;exitDx=0;exitDy=0;" edge="1" parent="1" source="IQlJb9kU39XFHBNEdt3I-51">
          <mxGeometry width="50" height="50" relative="1" as="geometry">
            <mxPoint x="250" y="360" as="sourcePoint" />
            <mxPoint x="560" y="519" as="targetPoint" />
          </mxGeometry>
        </mxCell>
        <mxCell id="IQlJb9kU39XFHBNEdt3I-60" value="counter front-end" style="text;html=1;align=center;verticalAlign=middle;whiteSpace=wrap;rounded=0;" vertex="1" parent="1">
          <mxGeometry x="550" y="504" width="140" height="30" as="geometry" />
        </mxCell>
        <mxCell id="IQlJb9kU39XFHBNEdt3I-61" value="" style="endArrow=none;html=1;rounded=0;" edge="1" parent="1">
          <mxGeometry width="50" height="50" relative="1" as="geometry">
            <mxPoint y="879" as="sourcePoint" />
            <mxPoint x="820" y="879" as="targetPoint" />
          </mxGeometry>
        </mxCell>
        <mxCell id="IQlJb9kU39XFHBNEdt3I-62" value="counter front-end" style="text;html=1;align=center;verticalAlign=middle;whiteSpace=wrap;rounded=0;" vertex="1" parent="1">
          <mxGeometry y="850" width="180" height="30" as="geometry" />
        </mxCell>
        <mxCell id="IQlJb9kU39XFHBNEdt3I-63" value="" style="endArrow=classic;html=1;rounded=0;" edge="1" parent="1">
          <mxGeometry width="50" height="50" relative="1" as="geometry">
            <mxPoint x="20" y="640" as="sourcePoint" />
            <mxPoint x="650" y="640" as="targetPoint" />
          </mxGeometry>
        </mxCell>
        <mxCell id="IQlJb9kU39XFHBNEdt3I-64" value="BF/HF front end" style="text;html=1;align=center;verticalAlign=middle;whiteSpace=wrap;rounded=0;" vertex="1" parent="1">
          <mxGeometry x="10" y="620" width="100" height="30" as="geometry" />
        </mxCell>
        <mxCell id="IQlJb9kU39XFHBNEdt3I-65" value="PCNT ESP32-S3 GPIO" style="text;html=1;align=center;verticalAlign=middle;whiteSpace=wrap;rounded=0;" vertex="1" parent="1">
          <mxGeometry x="647" y="625" width="160" height="30" as="geometry" />
        </mxCell>
        <mxCell id="IQlJb9kU39XFHBNEdt3I-67" value="RF switch (FET)" style="rounded=0;whiteSpace=wrap;html=1;" vertex="1" parent="1">
          <mxGeometry x="119" y="720" width="120" height="60" as="geometry" />
        </mxCell>
        <mxCell id="IQlJb9kU39XFHBNEdt3I-68" value="" style="endArrow=classic;html=1;rounded=0;entryX=0;entryY=0.25;entryDx=0;entryDy=0;" edge="1" parent="1" target="IQlJb9kU39XFHBNEdt3I-67">
          <mxGeometry width="50" height="50" relative="1" as="geometry">
            <mxPoint x="20" y="735" as="sourcePoint" />
            <mxPoint x="320" y="640" as="targetPoint" />
          </mxGeometry>
        </mxCell>
        <mxCell id="IQlJb9kU39XFHBNEdt3I-69" value="" style="endArrow=classic;html=1;rounded=0;entryX=0.008;entryY=0.667;entryDx=0;entryDy=0;entryPerimeter=0;" edge="1" parent="1" target="IQlJb9kU39XFHBNEdt3I-67">
          <mxGeometry width="50" height="50" relative="1" as="geometry">
            <mxPoint x="20" y="760" as="sourcePoint" />
            <mxPoint x="90" y="760" as="targetPoint" />
          </mxGeometry>
        </mxCell>
        <mxCell id="IQlJb9kU39XFHBNEdt3I-70" value="VHF front end" style="text;html=1;align=center;verticalAlign=middle;whiteSpace=wrap;rounded=0;" vertex="1" parent="1">
          <mxGeometry x="10" y="710" width="100" height="30" as="geometry" />
        </mxCell>
        <mxCell id="IQlJb9kU39XFHBNEdt3I-71" value="SHF front end" style="text;html=1;align=center;verticalAlign=middle;whiteSpace=wrap;rounded=0;" vertex="1" parent="1">
          <mxGeometry x="10" y="735" width="100" height="30" as="geometry" />
        </mxCell>
        <mxCell id="IQlJb9kU39XFHBNEdt3I-72" value="" style="endArrow=classic;html=1;rounded=0;entryX=0.672;entryY=0.995;entryDx=0;entryDy=0;entryPerimeter=0;" edge="1" parent="1" target="IQlJb9kU39XFHBNEdt3I-67">
          <mxGeometry width="50" height="50" relative="1" as="geometry">
            <mxPoint x="200" y="840" as="sourcePoint" />
            <mxPoint x="190" y="700" as="targetPoint" />
          </mxGeometry>
        </mxCell>
        <mxCell id="IQlJb9kU39XFHBNEdt3I-73" value="" style="endArrow=none;html=1;rounded=0;" edge="1" parent="1">
          <mxGeometry width="50" height="50" relative="1" as="geometry">
            <mxPoint x="200" y="840" as="sourcePoint" />
            <mxPoint x="620" y="840" as="targetPoint" />
          </mxGeometry>
        </mxCell>
        <mxCell id="IQlJb9kU39XFHBNEdt3I-74" value="ESP32-S3 GPIO &lt;i&gt;(band selector)&lt;/i&gt;" style="text;html=1;align=left;verticalAlign=middle;whiteSpace=wrap;rounded=0;" vertex="1" parent="1">
          <mxGeometry x="631" y="824" width="183" height="30" as="geometry" />
        </mxCell>
        <mxCell id="IQlJb9kU39XFHBNEdt3I-75" value="" style="triangle;whiteSpace=wrap;html=1;" vertex="1" parent="1">
          <mxGeometry x="320" y="710" width="80" height="80" as="geometry" />
        </mxCell>
        <mxCell id="IQlJb9kU39XFHBNEdt3I-76" value="2N3960" style="text;html=1;align=center;verticalAlign=middle;whiteSpace=wrap;rounded=0;" vertex="1" parent="1">
          <mxGeometry x="319" y="735" width="60" height="30" as="geometry" />
        </mxCell>
        <mxCell id="IQlJb9kU39XFHBNEdt3I-77" value="" style="endArrow=none;html=1;rounded=0;exitX=1;exitY=0.5;exitDx=0;exitDy=0;entryX=0;entryY=0.5;entryDx=0;entryDy=0;" edge="1" parent="1" source="IQlJb9kU39XFHBNEdt3I-67" target="IQlJb9kU39XFHBNEdt3I-76">
          <mxGeometry width="50" height="50" relative="1" as="geometry">
            <mxPoint x="460" y="610" as="sourcePoint" />
            <mxPoint x="510" y="560" as="targetPoint" />
          </mxGeometry>
        </mxCell>
        <mxCell id="IQlJb9kU39XFHBNEdt3I-78" value="" style="rounded=0;whiteSpace=wrap;html=1;" vertex="1" parent="1">
          <mxGeometry x="450" y="691" width="110" height="118" as="geometry" />
        </mxCell>
        <mxCell id="IQlJb9kU39XFHBNEdt3I-79" value="" style="endArrow=none;html=1;rounded=0;exitX=1;exitY=0.5;exitDx=0;exitDy=0;entryX=0;entryY=0.5;entryDx=0;entryDy=0;" edge="1" parent="1" source="IQlJb9kU39XFHBNEdt3I-75" target="IQlJb9kU39XFHBNEdt3I-78">
          <mxGeometry width="50" height="50" relative="1" as="geometry">
            <mxPoint x="460" y="610" as="sourcePoint" />
            <mxPoint x="510" y="560" as="targetPoint" />
          </mxGeometry>
        </mxCell>
        <mxCell id="IQlJb9kU39XFHBNEdt3I-80" value="" style="endArrow=classic;html=1;rounded=0;exitX=0.5;exitY=0;exitDx=0;exitDy=0;" edge="1" parent="1">
          <mxGeometry width="50" height="50" relative="1" as="geometry">
            <mxPoint x="359.71000000000004" y="731" as="sourcePoint" />
            <mxPoint x="359.71000000000004" y="691" as="targetPoint" />
          </mxGeometry>
        </mxCell>
        <mxCell id="IQlJb9kU39XFHBNEdt3I-81" value="+5V" style="text;html=1;align=center;verticalAlign=middle;whiteSpace=wrap;rounded=0;" vertex="1" parent="1">
          <mxGeometry x="330" y="661" width="60" height="30" as="geometry" />
        </mxCell>
        <mxCell id="IQlJb9kU39XFHBNEdt3I-82" value="" style="endArrow=classic;html=1;rounded=0;exitX=0.5;exitY=0;exitDx=0;exitDy=0;" edge="1" parent="1">
          <mxGeometry width="50" height="50" relative="1" as="geometry">
            <mxPoint x="489.71000000000004" y="691" as="sourcePoint" />
            <mxPoint x="489.71000000000004" y="651" as="targetPoint" />
          </mxGeometry>
        </mxCell>
        <mxCell id="IQlJb9kU39XFHBNEdt3I-83" value="+5V" style="text;html=1;align=center;verticalAlign=middle;whiteSpace=wrap;rounded=0;" vertex="1" parent="1">
          <mxGeometry x="480" y="650" width="60" height="30" as="geometry" />
        </mxCell>
        <mxCell id="IQlJb9kU39XFHBNEdt3I-84" value="" style="endArrow=classic;html=1;rounded=0;exitX=1;exitY=0.25;exitDx=0;exitDy=0;" edge="1" parent="1" source="IQlJb9kU39XFHBNEdt3I-78">
          <mxGeometry width="50" height="50" relative="1" as="geometry">
            <mxPoint x="450" y="710" as="sourcePoint" />
            <mxPoint x="640" y="720" as="targetPoint" />
          </mxGeometry>
        </mxCell>
        <mxCell id="IQlJb9kU39XFHBNEdt3I-85" value="" style="endArrow=classic;html=1;rounded=0;" edge="1" parent="1">
          <mxGeometry width="50" height="50" relative="1" as="geometry">
            <mxPoint x="560" y="740" as="sourcePoint" />
            <mxPoint x="640" y="740" as="targetPoint" />
          </mxGeometry>
        </mxCell>
        <mxCell id="IQlJb9kU39XFHBNEdt3I-86" value="" style="endArrow=classic;html=1;rounded=0;" edge="1" parent="1">
          <mxGeometry width="50" height="50" relative="1" as="geometry">
            <mxPoint x="560" y="760" as="sourcePoint" />
            <mxPoint x="640" y="760" as="targetPoint" />
          </mxGeometry>
        </mxCell>
        <mxCell id="IQlJb9kU39XFHBNEdt3I-87" value="" style="endArrow=classic;html=1;rounded=0;" edge="1" parent="1">
          <mxGeometry width="50" height="50" relative="1" as="geometry">
            <mxPoint x="560" y="780" as="sourcePoint" />
            <mxPoint x="640" y="780" as="targetPoint" />
          </mxGeometry>
        </mxCell>
        <mxCell id="IQlJb9kU39XFHBNEdt3I-88" value="" style="endArrow=classic;html=1;rounded=0;exitX=1.018;exitY=0.932;exitDx=0;exitDy=0;exitPerimeter=0;" edge="1" parent="1" source="IQlJb9kU39XFHBNEdt3I-78">
          <mxGeometry width="50" height="50" relative="1" as="geometry">
            <mxPoint x="530" y="801" as="sourcePoint" />
            <mxPoint x="640" y="800" as="targetPoint" />
          </mxGeometry>
        </mxCell>
        <mxCell id="IQlJb9kU39XFHBNEdt3I-89" value="PCNT ESP32-S3 GPIO" style="text;html=1;align=center;verticalAlign=middle;whiteSpace=wrap;rounded=0;" vertex="1" parent="1">
          <mxGeometry x="631" y="705" width="160" height="30" as="geometry" />
        </mxCell>
        <mxCell id="IQlJb9kU39XFHBNEdt3I-90" value="PCNT ESP32-S3 GPIO" style="text;html=1;align=center;verticalAlign=middle;whiteSpace=wrap;rounded=0;" vertex="1" parent="1">
          <mxGeometry x="631" y="720" width="160" height="30" as="geometry" />
        </mxCell>
        <mxCell id="IQlJb9kU39XFHBNEdt3I-91" value="PCNT ESP32-S3 GPIO" style="text;html=1;align=center;verticalAlign=middle;whiteSpace=wrap;rounded=0;" vertex="1" parent="1">
          <mxGeometry x="631" y="740" width="160" height="30" as="geometry" />
        </mxCell>
        <mxCell id="IQlJb9kU39XFHBNEdt3I-92" value="PCNT ESP32-S3 GPIO" style="text;html=1;align=center;verticalAlign=middle;whiteSpace=wrap;rounded=0;" vertex="1" parent="1">
          <mxGeometry x="631" y="760" width="160" height="30" as="geometry" />
        </mxCell>
        <mxCell id="IQlJb9kU39XFHBNEdt3I-93" value="PCNT ESP32-S3 GPIO" style="text;html=1;align=center;verticalAlign=middle;whiteSpace=wrap;rounded=0;" vertex="1" parent="1">
          <mxGeometry x="631" y="780" width="160" height="30" as="geometry" />
        </mxCell>
        <mxCell id="IQlJb9kU39XFHBNEdt3I-94" value="SN74LV161APWR&lt;div&gt;74LVC74APW&lt;/div&gt;" style="text;html=1;align=left;verticalAlign=middle;whiteSpace=wrap;rounded=0;" vertex="1" parent="1">
          <mxGeometry x="451" y="690" width="109" height="30" as="geometry" />
        </mxCell>
      </root>
    </mxGraphModel>
  </diagram>
</mxfile>
